<mxfile host="app.diagrams.net" modified="2023-02-08T20:56:50.488Z" agent="5.0 (X11; Ubuntu)" etag="74M3p4t2vlMd4pC4oi_K" version="20.8.16" type="github">
  <diagram name="Page-1" id="6X-WFrr9iym6pTOmZrIH">
    <mxGraphModel dx="1598" dy="901" grid="1" gridSize="10" guides="1" tooltips="1" connect="1" arrows="1" fold="1" page="1" pageScale="1" pageWidth="850" pageHeight="1100" math="0" shadow="0">
      <root>
        <mxCell id="0" />
        <mxCell id="1" parent="0" />
        <mxCell id="-eqFP2rU3eeV0thoWfOZ-1" value="" style="points=[];aspect=fixed;html=1;align=center;shadow=0;dashed=0;image;image=img/lib/allied_telesis/computer_and_terminals/Server_Desktop.svg;" vertex="1" parent="1">
          <mxGeometry x="588" y="378" width="126.22" height="160" as="geometry" />
        </mxCell>
        <mxCell id="-eqFP2rU3eeV0thoWfOZ-2" value="&lt;div&gt;&lt;font style=&quot;font-size: 25px;&quot;&gt;&lt;i&gt;&lt;font style=&quot;font-size: 25px;&quot;&gt;Netgear Black&lt;/font&gt;&lt;/i&gt;&lt;/font&gt;&lt;/div&gt;&lt;div&gt;&lt;font style=&quot;font-size: 25px;&quot;&gt;&lt;i&gt;&lt;font style=&quot;font-size: 25px;&quot;&gt;12 TB RAID 5&lt;br&gt;&lt;/font&gt;&lt;/i&gt;&lt;/font&gt;&lt;/div&gt;" style="text;html=1;align=center;verticalAlign=middle;resizable=0;points=[];autosize=1;strokeColor=none;fillColor=none;" vertex="1" parent="1">
          <mxGeometry x="561.11" y="528" width="180" height="80" as="geometry" />
        </mxCell>
        <mxCell id="-eqFP2rU3eeV0thoWfOZ-3" value="" style="points=[];aspect=fixed;html=1;align=center;shadow=0;dashed=0;image;image=img/lib/allied_telesis/computer_and_terminals/Server_Desktop.svg;" vertex="1" parent="1">
          <mxGeometry x="369.89" y="518" width="126.22" height="160" as="geometry" />
        </mxCell>
        <mxCell id="-eqFP2rU3eeV0thoWfOZ-4" value="&lt;div&gt;&lt;font style=&quot;font-size: 25px;&quot;&gt;&lt;i&gt;&lt;font style=&quot;font-size: 25px;&quot;&gt;Netgear Gray&lt;/font&gt;&lt;/i&gt;&lt;/font&gt;&lt;/div&gt;&lt;div&gt;&lt;font style=&quot;font-size: 25px;&quot;&gt;&lt;i&gt;&lt;font style=&quot;font-size: 25px;&quot;&gt;6 TB RAID1&lt;br&gt;&lt;/font&gt;&lt;/i&gt;&lt;/font&gt;&lt;/div&gt;" style="text;html=1;align=center;verticalAlign=middle;resizable=0;points=[];autosize=1;strokeColor=none;fillColor=none;" vertex="1" parent="1">
          <mxGeometry x="348" y="668" width="170" height="80" as="geometry" />
        </mxCell>
        <mxCell id="-eqFP2rU3eeV0thoWfOZ-5" value="" style="points=[];aspect=fixed;html=1;align=center;shadow=0;dashed=0;image;image=img/lib/allied_telesis/computer_and_terminals/Personal_Computer_with_Server.svg;fontSize=25;" vertex="1" parent="1">
          <mxGeometry x="108" y="368" width="180" height="180" as="geometry" />
        </mxCell>
        <mxCell id="-eqFP2rU3eeV0thoWfOZ-7" value="" style="verticalLabelPosition=bottom;sketch=0;aspect=fixed;html=1;verticalAlign=top;strokeColor=none;align=center;outlineConnect=0;shape=mxgraph.citrix.web_server;fontSize=25;" vertex="1" parent="1">
          <mxGeometry x="670" y="110" width="127.5" height="150" as="geometry" />
        </mxCell>
        <mxCell id="-eqFP2rU3eeV0thoWfOZ-8" value="" style="aspect=fixed;perimeter=ellipsePerimeter;html=1;align=center;shadow=0;dashed=0;spacingTop=3;image;image=img/lib/active_directory/modem.svg;fontSize=25;" vertex="1" parent="1">
          <mxGeometry x="436" y="125" width="144.58" height="120" as="geometry" />
        </mxCell>
        <mxCell id="-eqFP2rU3eeV0thoWfOZ-9" value="" style="sketch=0;html=1;aspect=fixed;strokeColor=none;shadow=0;align=center;verticalAlign=top;fillColor=#3B8DF1;shape=mxgraph.gcp2.globe_world;fontSize=25;" vertex="1" parent="1">
          <mxGeometry x="51.05" y="122.5" width="128.95" height="122.5" as="geometry" />
        </mxCell>
        <mxCell id="-eqFP2rU3eeV0thoWfOZ-10" value="" style="aspect=fixed;perimeter=ellipsePerimeter;html=1;align=center;shadow=0;dashed=0;spacingTop=3;image;image=img/lib/active_directory/firewall.svg;fontSize=25;" vertex="1" parent="1">
          <mxGeometry x="254.25" y="110" width="91.5" height="150" as="geometry" />
        </mxCell>
        <mxCell id="-eqFP2rU3eeV0thoWfOZ-11" value="&lt;font style=&quot;font-size: 25px;&quot;&gt;&lt;i&gt;&lt;font style=&quot;font-size: 25px;&quot;&gt;Lian-Li desktop&lt;br&gt;&lt;/font&gt;&lt;/i&gt;&lt;/font&gt;" style="text;html=1;align=center;verticalAlign=middle;resizable=0;points=[];autosize=1;strokeColor=none;fillColor=none;" vertex="1" parent="1">
          <mxGeometry x="103" y="560" width="190" height="50" as="geometry" />
        </mxCell>
        <mxCell id="-eqFP2rU3eeV0thoWfOZ-12" value="&lt;font style=&quot;font-size: 18px;&quot;&gt;&lt;i&gt;&lt;font style=&quot;font-size: 18px;&quot;&gt;&lt;font style=&quot;font-size: 18px;&quot;&gt;Frizbox firewall&lt;/font&gt;&lt;br&gt;&lt;/font&gt;&lt;/i&gt;&lt;/font&gt;" style="text;html=1;align=center;verticalAlign=middle;resizable=0;points=[];autosize=1;strokeColor=none;fillColor=none;" vertex="1" parent="1">
          <mxGeometry x="230" y="281.25" width="140" height="40" as="geometry" />
        </mxCell>
        <mxCell id="-eqFP2rU3eeV0thoWfOZ-13" value="&lt;div style=&quot;font-size: 18px;&quot;&gt;&lt;font style=&quot;font-size: 18px;&quot;&gt;&lt;i&gt;&lt;font style=&quot;font-size: 18px;&quot;&gt;Frizbox modem router &lt;br&gt;&lt;/font&gt;&lt;/i&gt;&lt;/font&gt;&lt;/div&gt;&lt;div style=&quot;font-size: 18px;&quot;&gt;&lt;font style=&quot;font-size: 18px;&quot;&gt;&lt;i&gt;&lt;font style=&quot;font-size: 18px;&quot;&gt;and wireless access point&lt;br&gt;&lt;/font&gt;&lt;/i&gt;&lt;/font&gt;&lt;/div&gt;" style="text;html=1;align=center;verticalAlign=middle;resizable=0;points=[];autosize=1;strokeColor=none;fillColor=none;" vertex="1" parent="1">
          <mxGeometry x="389.28999999999996" y="270" width="230" height="60" as="geometry" />
        </mxCell>
        <mxCell id="-eqFP2rU3eeV0thoWfOZ-15" value="&lt;font style=&quot;font-size: 20px;&quot;&gt;Shuttle web server&lt;/font&gt;" style="text;html=1;align=center;verticalAlign=middle;resizable=0;points=[];autosize=1;strokeColor=none;fillColor=none;" vertex="1" parent="1">
          <mxGeometry x="638.75" y="280" width="190" height="40" as="geometry" />
        </mxCell>
        <mxCell id="-eqFP2rU3eeV0thoWfOZ-16" value="Writes tend to be slower, because of the parity data calculation, but &lt;br/&gt;data can be accessed and read even while a failed drive is being &lt;br/&gt;rebuilt. When drives fail, the RAID 5 system can read the information &lt;br/&gt;contained on the other drives and recreate that data, tolerating a &lt;br/&gt;single drive failure." style="text;html=1;align=center;verticalAlign=middle;resizable=0;points=[];autosize=1;strokeColor=none;fillColor=none;fontSize=20;" vertex="1" parent="1">
          <mxGeometry x="790" y="440" width="630" height="130" as="geometry" />
        </mxCell>
      </root>
    </mxGraphModel>
  </diagram>
</mxfile>
